<svg xmlns="http://www.w3.org/2000/svg" width="19.169" height="13.178" viewBox="0 0 19.169 13.178"><defs><style>.a{fill:#5061ce;}</style></defs><g transform="translate(12.706 2.43)"><g transform="translate(0 0)"><path class="a" d="M339.392,149.154l6.462,4.085V144.9Z" transform="translate(-339.392 -144.896)"/></g></g><g transform="translate(0 2.43)"><g transform="translate(0 0)"><path class="a" d="M0,144.9v8.343l6.462-4.085Z" transform="translate(0 -144.896)"/></g></g><g transform="translate(0.036 0)"><g transform="translate(0 0)"><path class="a" d="M18.895,80H2.122A1.183,1.183,0,0,0,.96,81.02l9.548,6.291,9.548-6.291A1.183,1.183,0,0,0,18.895,80Z" transform="translate(-0.96 -80)"/></g></g><g transform="translate(0.038 7.41)"><path class="a" d="M12.595,277.921l-1.7,1.117a.6.6,0,0,1-.659,0l-1.7-1.118-7.521,4.757a1.181,1.181,0,0,0,1.16,1.011H18.956a1.181,1.181,0,0,0,1.16-1.011Z" transform="translate(-1.024 -277.92)"/></g></svg>