<svg xmlns="http://www.w3.org/2000/svg" width="15.731" height="15.806" viewBox="0 0 15.731 15.806"><defs><style>.a{fill:#5061ce;}</style></defs><g transform="translate(0)"><path class="a" d="M376.194,93.426a.643.643,0,1,0,.455.188A.642.642,0,0,0,376.194,93.426Z" transform="translate(-363.991 -90.541)"/><path class="a" d="M15.632,1.3A4.453,4.453,0,0,0,8.06,3.947,4.477,4.477,0,0,0,8.616,6.66L1.205,14.07l1.661,1.661.868-.868.942.942,1.553-1.553-.942-.942,1.163-1.163.942.942,1.553-1.553L8,10.6l2.275-2.275a4.478,4.478,0,0,0,2.712.556,4.453,4.453,0,0,0,3.947-4.424,4.424,4.424,0,0,0-1.3-3.149ZM14.519,4.639a1.571,1.571,0,1,1,0-2.222A1.566,1.566,0,0,1,14.519,4.639Z" transform="translate(-1.205)"/></g></svg>